PathFileType	4	(X/Y/Z)	D:\Vicon data\Senior Design EMG regression\Subject 2- Oliver\Session 3\oliver- static trial.trc
DataRate	CameraRate	NumFrames	NumMarkers	Units	OrigDataRate	OrigDataStartFrame	OrigNumFrames
100.0	100.0	5	60	mm	100.0	212	565	
Frame#	Time	HEAD			C7			CLAV			STUR			LSHO			LHAR2			LHME			LRAH			LRAD			LULN			LMCM			RSHO			RHAR2			RHME			RRAH			RRAD			RULN			RMCM			LASI			RASI			LPSI			RPSI			LLAT			LLFC			LKNE			LLAN			LHEE			LTOE			RLAT			RLFC			RKNE			RLAN			RHEE			RTOE			RSMT			RMAN			LSMT			LMAN			RSAT1			RSAT			RMFC			LSAT1			LSAT			LMFC			BARB			RHAR1			RHGT			RHHB			RHHF			RHLE			RMCR			RMCA			RMCI			LHHF			LHHB			LHGT			LHAR1			LHLE			LMCR			LMCI			
		X1	Y1	Z1	X2	Y2	Z2	X3	Y3	Z3	X4	Y4	Z4	X5	Y5	Z5	X6	Y6	Z6	X7	Y7	Z7	X8	Y8	Z8	X9	Y9	Z9	X10	Y10	Z10	X11	Y11	Z11	X12	Y12	Z12	X13	Y13	Z13	X14	Y14	Z14	X15	Y15	Z15	X16	Y16	Z16	X17	Y17	Z17	X18	Y18	Z18	X19	Y19	Z19	X20	Y20	Z20	X21	Y21	Z21	X22	Y22	Z22	X23	Y23	Z23	X24	Y24	Z24	X25	Y25	Z25	X26	Y26	Z26	X27	Y27	Z27	X28	Y28	Z28	X29	Y29	Z29	X30	Y30	Z30	X31	Y31	Z31	X32	Y32	Z32	X33	Y33	Z33	X34	Y34	Z34	X35	Y35	Z35	X36	Y36	Z36	X37	Y37	Z37	X38	Y38	Z38	X39	Y39	Z39	X40	Y40	Z40	X41	Y41	Z41	X42	Y42	Z42	X43	Y43	Z43	X44	Y44	Z44	X45	Y45	Z45	X46	Y46	Z46	X47	Y47	Z47	X48	Y48	Z48	X49	Y49	Z49	X50	Y50	Z50	X51	Y51	Z51	X52	Y52	Z52	X53	Y53	Z53	X54	Y54	Z54	X55	Y55	Z55	X56	Y56	Z56	X57	Y57	Z57	X58	Y58	Z58	X59	Y59	Z59	X60	Y60	Z60	
212	2.11	-0.21690109	1659.3645	-409.21854	3.6914074	1487.1125	-191.12575	6.7567191	1420.6145	-327.31644	6.6683111	1218.1555	-380.03256	-152.59831	1479.5776	-255.39973	-318.79062	1429.4706	-307.43015	-407.03818	1302.215	-338.73901	-374.13046	1381.7935	-382.98044	-365.72375	1360.686	-569.59656	-441.96249	1353.5398	-571.71185	-389.1665	1368.9298	-656.91571	165.34807	1462.4528	-230.15761	313.99612	1414.2311	-282.00653	423.75366	1384.8226	-291.39478	404.16998	1378.3561	-334.67795	418.27283	1338.455	-532.61908	489.00412	1358.91	-525.00653	459.12238	1343.764	-624.47137	-81.556915	925.55322	-390.12402	134.78958	942.52753	-380.57758	-17.400265	991.08344	-160.94562	60.203121	990.71906	-158.44106	-130.28999	581.8847	-324.80765	-117.41096	490.1026	-307.47922	-72.608719	435.5867	-335.67957	-125.90929	93.421944	-225.64445	-83.033974	73.638771	-163.17633	-90.456482	48.744598	-427.22531	214.66968	726.07526	-287.5466	140.88611	487.12122	-302.26971	99.501465	450.30197	-321.87726	150.33482	88.252174	-219.7672	104.82009	71.675774	-165.16441	113.75528	54.520725	-422.44809	166.86143	53.799946	-360.27008	67.446442	98.604256	-238.59904	-148.56232	54.583878	-346.08701	-39.022385	95.003433	-241.32008	157.61499	814.42584	-384.33011	119.44404	606.23077	-364.13751	43.824482	470.52585	-281.84116	-76.486656	791.74231	-414.73953	-84.451195	638.40265	-388.62564	-14.657584	472.28961	-306.72021	55.678505	1235.6803	-140.17422	379.39807	1378.748	-238.06406	272.84433	1432.9642	-224.83066	183.96762	1376.7316	-164.65892	175.48003	1424.9924	-314.65265				482.4978	1341.2045	-614.43018	497.12195	1345.756	-582.84888	435.30722	1344.4749	-624.48444	-152.89832	1427.0856	-337.58047	-192.86113	1416.9431	-210.74214	-258.2067	1465.1479	-278.04886	-375.44077	1397.5408	-267.67691	-416.46976	1404.8724	-325.12836	-414.43484	1363.3368	-656.52917	-359.56839	1365.4081	-656.85858
213	2.12	-0.21937604	1659.4446	-409.21738	3.707088	1487.0697	-191.09131	6.7412391	1420.5797	-327.27002	6.5818901	1218.137	-380.03003	-152.63043	1479.556	-255.34082	-318.82236	1429.511	-307.26593	-407.15753	1302.2656	-338.64899	-374.22275	1381.9161	-382.92828	-365.97568	1360.5955	-569.59607	-442.18359	1353.4139	-571.61548	-389.43359	1368.6599	-657.00598	165.33527	1462.3785	-230.13724	313.99631	1414.1542	-281.98532	423.74915	1384.6626	-291.38901	404.14993	1378.2367	-334.67926	418.28687	1338.2301	-532.60602	489.14133	1358.7896	-525.03607	459.146	1343.5061	-624.52911	-81.58918	925.54553	-390.12338	134.76997	942.53491	-380.61298	-17.413525	991.02295	-160.96864	60.19939	990.65442	-158.51242	-130.30388	581.85626	-324.79675	-117.46323	490.11154	-307.48816	-72.647545	435.58463	-335.66739	-125.84624	93.396782	-225.59338	-83.040939	73.62413	-163.20726	-90.436707	48.734718	-427.21747	214.6559	726.06982	-287.62115	140.86351	487.09213	-302.28519	99.495995	450.32202	-321.88528	150.33833	88.237587	-219.76047	104.8268	71.663567	-165.16451	113.75174	54.495598	-422.42365	166.88046	53.778282	-360.2533	67.453491	98.607132	-238.59422	-148.54492	54.574604	-346.08755	-39.013844	95.018417	-241.30051	157.61218	814.45007	-384.40814	119.40667	606.20386	-364.15448	43.795761	470.55002	-281.87238	-76.560043	791.75	-414.68781	-84.497787	638.40106	-388.58118	-14.707075	472.31067	-306.6763	55.764297	1235.6353	-140.16844	379.38077	1378.6302	-238.04466	272.83075	1432.8851	-224.81631	183.94583	1376.649	-164.65678	175.44795	1424.9481	-314.59988				482.43759	1340.8688	-614.28363	497.34738	1345.6522	-582.98438	435.31354	1344.4108	-624.74268	-152.94508	1427.1008	-337.50397	-192.9053	1416.8711	-210.67854	-258.21313	1465.1488	-277.93768	-375.47275	1397.5554	-267.56281	-416.52731	1404.9441	-325.03586	-414.83246	1363.1304	-656.35864	-359.85913	1365.2028	-656.82233
214	2.13	-0.25447679	1659.5389	-409.18655	3.7097025	1487.0752	-191.07828	6.7273149	1420.577	-327.21722	6.4999442	1218.1666	-380.08954	-152.62143	1479.5586	-255.2599	-318.82159	1429.5908	-307.16235	-407.25769	1302.3604	-338.54343	-374.37091	1382.0521	-382.89816	-366.1716	1360.4915	-569.54089	-442.40173	1353.3452	-571.53058	-389.7377	1368.5496	-657.17755	165.35838	1462.3627	-230.11871	313.98148	1414.1232	-281.95596	423.7312	1384.5922	-291.40179	404.0972	1378.0452	-334.59689	418.32681	1338.0347	-532.5351	489.12503	1358.6392	-525.01917	459.1998	1343.2551	-624.52521	-81.652802	925.59259	-390.0899	134.69431	942.54156	-380.63492	-17.395988	991.04248	-160.95886	60.211464	990.69586	-158.41541	-130.33473	581.91443	-324.77386	-117.48298	490.14154	-307.45312	-72.686775	435.62738	-335.62534	-125.91354	93.44696	-225.60088	-83.021439	73.650566	-163.16086	-90.451775	48.766148	-427.21667	214.61836	726.07288	-287.68015	140.84766	487.12421	-302.31302	99.441338	450.31454	-321.90271	150.34856	88.288734	-219.74321	104.83828	71.680946	-165.17372	113.75204	54.527618	-422.41016	166.88463	53.818634	-360.25983	67.457939	98.615883	-238.57217	-148.56706	54.602467	-346.08038	-39.029224	95.039169	-241.28493	157.50456	814.44702	-384.38342	119.36881	606.23364	-364.19839	43.761276	470.58878	-281.86389	-76.620247	791.77625	-414.68185	-84.5672	638.43915	-388.53583	-14.761408	472.37503	-306.66003	55.811928	1235.66	-140.17903	379.34058	1378.5349	-238.02574	272.8222	1432.8461	-224.80833	183.96452	1376.6089	-164.66637	175.41917	1424.9242	-314.60257				482.47025	1340.7156	-614.27301	497.27643	1345.3358	-582.82385	435.32809	1344.1445	-624.74054	-152.96075	1427.1403	-337.46417	-192.90076	1416.8666	-210.67789	-258.22061	1465.1855	-277.87616	-375.49014	1397.6107	-267.52298	-416.59702	1405.0217	-324.95844	-415.11337	1362.9937	-656.27924	-360.15482	1365.054	-656.77429
215	2.14	-0.29477549	1659.5989	-409.15134	3.6982322	1487.0719	-191.06276	6.7232585	1420.5398	-327.18481	6.4048181	1218.129	-380.12964	-152.66019	1479.5704	-255.26997	-318.83908	1429.6245	-307.17645	-407.37451	1302.4132	-338.44202	-374.43143	1382.175	-382.89761	-366.41873	1360.4406	-569.60132	-442.64062	1353.2842	-571.46857	-389.9975	1368.4835	-657.07312	165.30782	1462.3016	-230.11769	313.95071	1414.0516	-281.97263	423.71234	1384.6115	-291.34042	404.08365	1378.0568	-334.71246	418.38406	1337.8292	-532.58923	489.12943	1358.4783	-525.06708	459.23904	1342.9825	-624.49377	-81.738174	925.54523	-390.0708	134.62296	942.54578	-380.75217	-17.422012	991.05304	-160.95267	60.189659	990.69476	-158.4648	-130.38243	581.87762	-324.75195	-117.50825	490.0773	-307.43762	-72.720413	435.61456	-335.63428	-125.96284	93.395981	-225.59134	-83.05381	73.635757	-163.16077	-90.448738	48.765347	-427.22574	214.61943	726.08026	-287.771	140.79306	487.10931	-302.36945	99.380653	450.28363	-321.95471	150.28377	88.257523	-219.81151	104.83001	71.667595	-165.18156	113.74908	54.527866	-422.4379	166.86919	53.783203	-360.26434	67.425079	98.614532	-238.5842	-148.57454	54.572483	-346.09995	-39.062653	95.020058	-241.30724	157.44206	814.4422	-384.45407	119.29122	606.22058	-364.26398	43.771843	470.48816	-281.85764	-76.681641	791.7287	-414.64627	-84.588493	638.39929	-388.51208	-14.760783	472.31787	-306.64557	55.818142	1235.6383	-140.20503	379.30472	1378.458	-238.07002	272.80371	1432.7773	-224.82991	183.88251	1376.5487	-164.66544	175.38278	1424.8733	-314.61093				482.49884	1340.5741	-614.32672	497.28012	1345.1924	-582.88031	435.39764	1343.7559	-624.62097	-153.00882	1427.0758	-337.43405	-192.9313	1416.9064	-210.67899	-258.20856	1465.2146	-277.90906	-375.51163	1397.6803	-267.48212	-416.646	1405.1068	-324.95413	-415.39893	1363.0702	-656.40326	-360.47305	1364.9019	-656.81268
216	2.15	-0.37707698	1659.6913	-409.10645	3.6974223	1487.0527	-191.04956	6.7320166	1420.4989	-327.16348	6.3083773	1218.0947	-380.12659	-152.63716	1479.5764	-255.2571	-318.82727	1429.6683	-307.1792	-407.45493	1302.495	-338.39822	-374.58267	1382.2406	-382.84827	-366.58237	1360.4304	-569.62531	-442.85367	1353.2745	-571.44897	-390.28757	1368.5513	-657.08936	165.31187	1462.2584	-230.13882	313.91449	1413.9999	-281.96436	423.70059	1384.4052	-291.44687	404.08389	1377.9825	-334.77573	418.80099	1337.3156	-532.36133	489.15799	1358.3551	-525.09369	459.29968	1342.8551	-624.57428	-81.80265	925.54034	-390.05838	134.54616	942.51514	-380.8295	-17.407583	991.00598	-160.97691	60.194992	990.65051	-158.58289	-130.39163	581.87988	-324.7547	-117.55081	490.07962	-307.42633	-72.739227	435.60193	-335.60547	-125.93285	93.402824	-225.55531	-83.053413	73.610489	-163.18991	-90.453835	48.741524	-427.22818	214.58694	726.0578	-287.8645	140.7343	487.08847	-302.4021	99.330154	450.28113	-321.98584	150.27423	88.204742	-219.83051	104.83108	71.665886	-165.17717	113.7234	54.50296	-422.42407	166.86601	53.783764	-360.27615	67.425514	98.583694	-238.61404	-148.56821	54.55838	-346.0983	-39.04731	95.002892	-241.32483	157.34671	814.42322	-384.51199	119.2243	606.21698	-364.32132	43.729366	470.53229	-281.94806	-76.725204	791.73462	-414.73978	-84.641541	638.40356	-388.46915	-15.05082	472.492	-306.69592	55.870308	1235.6472	-140.22668	379.28494	1378.3638	-238.03641	272.7767	1432.6989	-224.85286	183.89639	1376.4784	-164.70186	175.36473	1424.8262	-314.64703				482.54486	1340.4178	-614.34589	497.29385	1344.9801	-582.89276	435.47482	1343.588	-624.71948	-153.00603	1427.0386	-337.42471	-192.90677	1416.95	-210.67783	-258.17361	1465.2439	-277.92847	-375.53476	1397.7181	-267.47803	-416.69855	1405.1703	-324.93243	-415.66129	1362.9359	-656.42371	-360.78528	1364.7168	-656.75189
